<?xml version="1.0" encoding="UTF-8" standalone="no"?>
<!-- Created with Inkscape (http://www.inkscape.org/) -->

<svg
   xmlns:dc="http://purl.org/dc/elements/1.1/"
   xmlns:cc="http://creativecommons.org/ns#"
   xmlns:rdf="http://www.w3.org/1999/02/22-rdf-syntax-ns#"
   xmlns:svg="http://www.w3.org/2000/svg"
   xmlns="http://www.w3.org/2000/svg"
   xmlns:sodipodi="http://sodipodi.sourceforge.net/DTD/sodipodi-0.dtd"
   xmlns:inkscape="http://www.inkscape.org/namespaces/inkscape"
   width="100"
   height="175.40198"
   id="svg15734"
   version="1.1"
   inkscape:version="0.48.1 "
   sodipodi:docname="Nouveau document 3">
  <defs
     id="defs15736" />
  <sodipodi:namedview
     id="base"
     pagecolor="#ffffff"
     bordercolor="#666666"
     borderopacity="1.0"
     inkscape:pageopacity="0.0"
     inkscape:pageshadow="2"
     inkscape:zoom="2.9475152"
     inkscape:cx="50"
     inkscape:cy="87.700989"
     inkscape:document-units="px"
     inkscape:current-layer="layer1"
     showgrid="false"
     fit-margin-top="0"
     fit-margin-left="0"
     fit-margin-right="0"
     fit-margin-bottom="0"
     inkscape:window-width="1366"
     inkscape:window-height="706"
     inkscape:window-x="-8"
     inkscape:window-y="-8"
     inkscape:window-maximized="1" />
  <metadata
     id="metadata15739">
    <rdf:RDF>
      <cc:Work
         rdf:about="">
        <dc:format>image/svg+xml</dc:format>
        <dc:type
           rdf:resource="http://purl.org/dc/dcmitype/StillImage" />
        <dc:title></dc:title>
      </cc:Work>
    </rdf:RDF>
  </metadata>
  <g
     inkscape:label="Calque 1"
     inkscape:groupmode="layer"
     id="layer1"
     transform="translate(-373.35128,-359.85211)">
    <g
       id="g15669"
       transform="matrix(37.912456,0,0,-37.912456,-12091.506,19509.536)">
      <path
         d="m 329.6191,502.3565 c 0,0 0.149,-0.07 0.245,-0.079 0,0 -0.009,-0.166 0.087,-0.288 0,0 -0.078,0.017 -0.113,0.061 0,0 -0.009,-0.079 -0.027,-0.114 -0.052,-0.078 -0.105,-0.148 -0.157,-0.227 -0.026,-0.044 -0.192,-0.228 -0.149,-0.271 0.027,-0.035 0.096,-0.018 0.131,-0.026 0.044,0 0.088,0 0.105,-0.053 0.018,-0.052 -0.035,-0.087 -0.078,-0.052 -0.07,0.052 -0.158,0.061 -0.236,0.061 l -0.132,0 c -0.035,-0.009 -0.078,0 -0.113,-0.018 -0.044,-0.017 -0.07,-0.105 -0.105,-0.043 -0.009,0.017 0.017,0.078 0.044,0.07 -0.053,0.017 -0.123,0.017 -0.14,-0.044 -0.018,0.07 0.043,0.114 0.113,0.087 -0.008,0.035 0.027,0.053 0.035,0.053 0.026,0.008 0.061,0.008 0.088,0 0.052,-0.026 0.105,-0.061 0.157,-0.018 0.07,0.053 0.105,0.14 0.149,0.219 0.035,0.07 0.078,0.131 0.105,0.21 0.026,0.052 0.07,0.122 0.07,0.183 -0.009,0.079 -0.123,0.009 -0.158,-0.026 0.053,0.096 0.088,0.21 0.079,0.315"
         style="fill:#fcd205;fill-opacity:1;fill-rule:evenodd;stroke:none"
         id="path5690"
         inkscape:connector-curvature="0" />
      <path
         d="m 330.31,503.7207 c 0.735,0.411 1.023,1.006 1.032,1.207 0,0.14 -0.079,0.175 -0.079,0.175 -0.026,-0.569 -0.472,-0.962 -0.621,-1.093 -0.157,-0.132 -0.402,-0.254 -0.498,-0.376 -0.053,-0.062 -0.105,-0.21 -0.131,-0.307 -0.027,-0.096 -0.166,-0.166 -0.201,-0.166 -0.044,0 -0.044,0.035 -0.018,0.035 0.053,0.009 0.088,0.088 0.122,0.175 0.035,0.088 0.027,0.245 0.158,0.394 0.131,0.157 0.804,0.612 0.804,0.979 0,0.184 -0.131,0.201 -0.131,0.201 0,0 0.114,-0.087 -0.061,-0.402 -0.175,-0.324 -0.56,-0.525 -0.726,-0.77 -0.122,-0.183 -0.105,-0.524 -0.21,-0.524 -0.035,0 -0.07,0.052 -0.07,0.166 0.009,0.306 0.403,0.516 0.403,0.734 0,0.132 -0.07,0.175 -0.07,0.175 0.323,-0.035 0.28,0.123 0.28,0.123 0,0 0,-0.061 -0.132,-0.061 -0.131,0 -0.279,0.131 -0.463,0.131 -0.114,0.009 -0.131,-0.088 -0.131,-0.088 l -0.088,0 c -0.009,0.018 -0.009,0.027 -0.026,0.035 -0.017,0.009 -0.035,0.009 -0.044,-0.008 0,-0.009 0.009,-0.027 0.009,-0.035 -0.131,-0.035 -0.14,-0.114 -0.14,-0.114 0.009,0.026 0.158,0.07 0.158,-0.009 0,-0.07 -0.088,-0.061 -0.088,-0.061 0,0 0.009,-0.035 0.053,-0.035 0,-0.018 -0.018,-0.053 -0.044,-0.087 -0.026,0 -0.035,0.017 -0.053,0.026 -0.026,0.017 -0.052,0.017 -0.078,0.017 -0.035,-0.009 -0.044,-0.035 -0.07,-0.052 -0.027,-0.009 -0.053,0 -0.079,0.009 0.035,-0.035 0.079,-0.07 0.131,-0.053 0.035,0.018 0.096,0.087 0.105,0.018 0,-0.009 -0.009,-0.009 -0.017,-0.018 -0.027,0 -0.035,-0.026 -0.062,-0.035 -0.017,-0.017 -0.043,-0.017 -0.052,-0.035 -0.035,-0.052 0,-0.114 0.044,-0.131 -0.053,0.079 0.105,0.105 0.087,0.184 0.009,0.008 0.026,0.017 0.035,0.035 0.018,0 0.035,-0.027 0.044,-0.044 0.017,-0.026 0.026,-0.044 0.061,-0.044 0.052,0 0.096,0.044 0.096,0.088 -0.017,-0.035 -0.052,-0.044 -0.079,-0.018 -0.026,0.026 -0.043,0.053 -0.078,0.061 0.017,0.035 0.026,0.061 0.035,0.079 0.052,0.009 0.148,0.052 0.201,0.052 0.052,0 0.157,-0.052 0.157,-0.139 0,-0.315 -0.691,-0.342 -0.699,-1.076 -0.009,-0.586 0.935,-0.717 0.935,-0.717 0,0 0.105,-0.14 0.035,-0.333 l 0.062,0.053 c 0,0 0.035,0.044 0.052,-0.07 0.026,-0.105 0.079,-0.289 0.088,-0.332 0.017,-0.044 0.148,-0.245 0.017,-0.219 -0.026,0 -0.052,0.018 -0.079,0.026 -0.035,0.009 -0.157,0.027 -0.14,-0.043 0,0 -0.113,0.008 -0.105,-0.088 0,0 0.079,0.07 0.114,0.044 0.018,-0.026 -0.052,-0.088 0,-0.105 0.018,-0.009 0.044,0.044 0.061,0.061 0.044,0.026 0.132,0.026 0.184,0.035 0.079,0.009 0.166,0.009 0.245,-0.009 0.017,-0.008 0.052,-0.008 0.07,-0.026 0.026,-0.009 0.035,-0.044 0.061,-0.035 0.061,0 0.044,0.079 0.009,0.105 -0.035,0.026 -0.201,0.018 -0.201,0.018 -0.167,0.113 -0.175,0.62 -0.175,0.62 0.096,-0.069 0.166,-0.026 0.166,-0.026 -0.254,0.175 -0.192,0.481 -0.192,0.481 -0.097,0.088 -0.184,0.184 -0.263,0.28 -0.052,0.061 -0.105,0.131 -0.122,0.21 0,0.017 -0.018,0.079 0.017,0.07 0.018,0 0.044,-0.061 0.053,-0.079 l 0,-0.009 c 0.017,-0.035 0.043,-0.087 0.078,-0.122 0.123,-0.166 0.35,-0.306 0.429,-0.463 0.044,-0.079 0.061,-0.193 0.035,-0.289 0,0 0.087,0.219 -0.026,0.42 -0.097,0.157 -0.341,0.332 -0.411,0.419 -0.027,0.035 -0.079,0.088 -0.088,0.132 -0.009,0.026 0.026,0.017 0.044,0 0.026,-0.027 0.052,-0.053 0.087,-0.079 0.088,-0.07 0.201,-0.131 0.306,-0.131 0.175,0 0.254,0.113 0.254,0.113 -0.376,-0.026 -0.49,0.149 -0.49,0.149 0,0 0.184,0 0.21,0.105 -0.035,0 -0.061,-0.009 -0.096,0 -0.026,0 -0.122,0.009 -0.07,0.044 0.026,0.017 0.07,0.017 0.096,0.026 0.044,0.017 0.14,0.052 0.14,0.114 -0.035,0 -0.079,-0.018 -0.114,-0.027 -0.035,0 -0.078,-0.008 -0.113,0 -0.061,0.018 0.009,0.035 0.035,0.044 0.043,0.009 0.087,0.026 0.131,0.053 0.017,0.017 0.079,0.061 0.07,0.096 -0.009,0.035 -0.07,-0.018 -0.088,-0.026 -0.035,-0.018 -0.078,-0.035 -0.113,-0.035 -0.07,0 -0.035,0.052 0.009,0.07 0.069,0.035 0.174,0.07 0.209,0.148 0.027,0.053 -0.017,0.044 -0.052,0.026 -0.026,-0.017 -0.088,-0.061 -0.123,-0.069 -0.034,0 -0.043,0.035 -0.017,0.052"
         style="fill:#fcd205;fill-opacity:1;fill-rule:evenodd;stroke:none"
         id="path5694"
         inkscape:connector-curvature="0" />
      <path
         d="m 330.275,502.8112 c 0,0 0.717,-0.455 0.542,-1.041 0,0 0.507,0.779 -0.542,1.041"
         style="fill:#fcd205;fill-opacity:1;fill-rule:evenodd;stroke:none"
         id="path5698"
         inkscape:connector-curvature="0" />
      <path
         d="m 330.4674,503.0124 c 0,0 0.201,0.026 0.315,0.131 0,0 -0.009,-0.087 -0.088,-0.14 0,0 -0.14,-0.017 -0.227,0.009"
         style="fill:#fcd205;fill-opacity:1;fill-rule:evenodd;stroke:none"
         id="path5702"
         inkscape:connector-curvature="0" />
      <path
         d="m 330.5898,503.607 c 0,-0.035 -0.009,-0.079 -0.009,-0.131 0.35,0.14 0.56,0.446 0.595,0.507 0.026,0.07 -0.009,0.044 -0.009,0.044 -0.157,-0.184 -0.367,-0.315 -0.577,-0.42"
         style="fill:#fcd205;fill-opacity:1;fill-rule:evenodd;stroke:none"
         id="path5706"
         inkscape:connector-curvature="0" />
      <path
         d="m 330.5723,503.4234 c -0.009,-0.044 -0.017,-0.096 -0.035,-0.14 0.35,0.096 0.49,0.332 0.516,0.385 0.017,0.052 0,0.044 0,0.044 -0.131,-0.132 -0.297,-0.237 -0.481,-0.289"
         style="fill:#fcd205;fill-opacity:1;fill-rule:evenodd;stroke:none"
         id="path5710"
         inkscape:connector-curvature="0" />
      <path
         d="m 330.5111,503.2135 c -0.035,-0.061 -0.07,-0.114 -0.114,-0.157 0.228,0.017 0.49,0.236 0.534,0.314 0.061,0.088 0,0.035 0,0.035 -0.123,-0.087 -0.271,-0.166 -0.42,-0.192"
         style="fill:#fcd205;fill-opacity:1;fill-rule:evenodd;stroke:none"
         id="path5714"
         inkscape:connector-curvature="0" />
      <path
         d="m 329.5841,503.6245 c -0.017,0.009 -0.219,-0.114 -0.219,-0.455 -0.008,-0.393 0.473,-0.568 0.481,-0.533 0.009,0.026 -0.349,0.227 -0.349,0.551 0.008,0.341 0.113,0.428 0.087,0.437"
         style="fill:#fcd205;fill-opacity:1;fill-rule:evenodd;stroke:none"
         id="path5718"
         inkscape:connector-curvature="0" />
      <path
         d="m 329.313,500.6862 -0.017,-0.192 -0.516,0 0,0.035 0.035,0 c 0.017,0 0.026,0 0.035,0.008 0.008,0 0.008,0.009 0.017,0.018 0,0 0.009,0.017 0.009,0.026 l 0,0.472 c 0,0.009 -0.009,0.018 -0.009,0.027 0,0.008 -0.009,0.008 -0.017,0.017 -0.009,0 -0.018,0.009 -0.035,0.009 -0.009,0.008 -0.027,0.008 -0.035,0.008 l 0,0.035 0.279,0 0,-0.035 c -0.008,0 -0.017,0 -0.035,-0.008 l -0.026,0 -0.026,-0.026 0,-0.027 0,-0.437 0,-0.052 c 0,-0.009 0.009,-0.018 0.017,-0.027 0.009,0 0.018,-0.008 0.027,-0.008 l 0.061,0 0.035,0 0.035,0 c 0.009,0.008 0.017,0.008 0.035,0.008 0.009,0.009 0.009,0.009 0.017,0.018 0.009,0.009 0.027,0.035 0.044,0.061 0.018,0.026 0.026,0.052 0.035,0.07 l 0.035,0 z m 0.184,-0.14 c 0,-0.017 0,-0.035 -0.018,-0.044 -0.009,-0.017 -0.026,-0.017 -0.044,-0.017 -0.017,0 -0.026,0 -0.043,0.017 -0.009,0.009 -0.018,0.027 -0.018,0.044 0,0.018 0.009,0.035 0.018,0.044 0.017,0.009 0.026,0.017 0.043,0.017 0.018,0 0.035,-0.008 0.044,-0.017 0.018,-0.009 0.018,-0.026 0.018,-0.044 m 0.621,0.437 -0.035,0 c -0.009,0.027 -0.018,0.053 -0.044,0.079 -0.018,0.026 -0.035,0.044 -0.053,0.044 l -0.035,0 -0.043,0 -0.114,0 0,-0.263 0.079,0 c 0.017,0 0.035,0.009 0.052,0.009 0.009,0.009 0.018,0.018 0.026,0.026 0.009,0.009 0.018,0.018 0.018,0.027 0.009,0.017 0.009,0.035 0.009,0.052 l 0.035,0 0,-0.262 -0.035,0 c 0,0.017 0,0.035 -0.009,0.043 0,0.018 -0.009,0.035 -0.018,0.044 -0.008,0.009 -0.017,0.018 -0.035,0.018 -0.008,0.008 -0.026,0.008 -0.043,0.008 l -0.079,0 0,-0.227 c 0,-0.009 0,-0.017 0.009,-0.026 0,-0.009 0.008,-0.009 0.017,-0.018 0.009,0 0.018,-0.008 0.035,-0.008 l 0.035,0 0,-0.035 -0.288,0 0,0.035 0.035,0 c 0.017,0 0.026,0 0.035,0.008 0.008,0 0.017,0.009 0.017,0.018 0.009,0 0.009,0.009 0.009,0.026 l 0,0.472 c 0,0.009 0,0.018 -0.009,0.027 0,0.008 -0.009,0.008 -0.017,0.017 -0.009,0.009 -0.018,0.009 -0.035,0.009 -0.018,0.008 -0.027,0.008 -0.035,0.008 l 0,0.035 0.516,0 0,-0.166 z m 0.201,-0.437 c 0,-0.017 0,-0.035 -0.018,-0.044 -0.009,-0.017 -0.026,-0.017 -0.044,-0.017 -0.017,0 -0.035,0 -0.043,0.017 -0.018,0.009 -0.018,0.027 -0.018,0.044 0,0.018 0,0.035 0.018,0.044 0.008,0.009 0.026,0.017 0.043,0.017 0.018,0 0.035,-0.008 0.044,-0.017 0.018,-0.009 0.018,-0.026 0.018,-0.044 m 0.402,-0.07 c -0.044,0 -0.079,0.009 -0.114,0.026 -0.035,0.009 -0.07,0.035 -0.096,0.062 -0.026,0.035 -0.052,0.07 -0.07,0.104 -0.017,0.044 -0.017,0.097 -0.017,0.149 0,0.044 0,0.096 0.017,0.14 0.018,0.044 0.044,0.079 0.07,0.105 0.026,0.035 0.061,0.061 0.096,0.07 0.044,0.017 0.079,0.026 0.123,0.026 0.035,0 0.061,0 0.087,-0.009 0.026,-0.008 0.053,-0.017 0.079,-0.035 l 0.017,0.035 0.035,0 0.009,-0.236 -0.044,0 c 0,0.027 -0.008,0.044 -0.017,0.07 -0.009,0.027 -0.026,0.053 -0.035,0.07 -0.018,0.027 -0.035,0.035 -0.053,0.053 -0.026,0.008 -0.043,0.017 -0.07,0.017 -0.035,0 -0.061,-0.009 -0.087,-0.017 -0.026,-0.018 -0.044,-0.035 -0.061,-0.061 -0.018,-0.027 -0.035,-0.062 -0.044,-0.097 -0.009,-0.035 -0.017,-0.078 -0.017,-0.131 0,-0.044 0.008,-0.079 0.017,-0.114 0.009,-0.035 0.026,-0.061 0.044,-0.087 0.017,-0.026 0.043,-0.052 0.07,-0.061 0.026,-0.018 0.061,-0.026 0.087,-0.026 0.026,0 0.053,0 0.07,0.008 0.026,0.009 0.044,0.018 0.061,0.035 0.009,0.009 0.027,0.027 0.035,0.044 0.018,0.018 0.027,0.035 0.027,0.061 l 0.035,-0.017 c -0.027,-0.07 -0.062,-0.114 -0.105,-0.14 -0.044,-0.026 -0.097,-0.044 -0.149,-0.044 m 0.463,0.07 c 0,-0.017 -0.008,-0.035 -0.017,-0.044 -0.018,-0.017 -0.035,-0.017 -0.053,-0.017 -0.017,0 -0.026,0 -0.043,0.017 -0.009,0.009 -0.018,0.027 -0.018,0.044 0,0.018 0.009,0.035 0.018,0.044 0.017,0.009 0.026,0.017 0.043,0.017 0.018,0 0.035,-0.008 0.053,-0.017 0.009,-0.009 0.017,-0.026 0.017,-0.044"
         style="fill:#fcd205;fill-opacity:1;fill-rule:nonzero;stroke:none"
         id="path5722"
         inkscape:connector-curvature="0" />
      <path
         d="m 330.5811,503.7994 c 0,-0.026 0.009,-0.07 0.009,-0.122 0.516,0.253 0.743,0.682 0.761,0.734 0.017,0.061 -0.018,0.035 -0.018,0.035 -0.166,-0.271 -0.49,-0.49 -0.752,-0.647"
         style="fill:#fcd205;fill-opacity:1;fill-rule:evenodd;stroke:none"
         id="path5838"
         inkscape:connector-curvature="0" />
      <path
         d="m 329.794,504.3853 c 0,0 -0.061,0.035 -0.105,0.035 -0.052,0 -0.044,-0.026 -0.044,-0.026 0,0 0,-0.035 0.062,-0.035 0.07,0 0.087,0.026 0.087,0.026"
         style="fill:#fcd205;fill-opacity:1;fill-rule:evenodd;stroke:none"
         id="path5842"
         inkscape:connector-curvature="0" />
      <path
         d="m 330.9221,504.123 c 0,0 0.402,0.376 0.472,0.7 0,0 0.053,-0.097 0,-0.202 -0.044,-0.113 -0.367,-0.472 -0.472,-0.498"
         style="fill:#fcd205;fill-opacity:1;fill-rule:evenodd;stroke:none"
         id="path5846"
         inkscape:connector-curvature="0" />
      <path
         d="m 330.7822,504.3241 c 0.131,0.149 0.219,0.411 0.166,0.472 0,0 0.096,-0.105 0.035,-0.245 -0.14,-0.341 -0.507,-0.559 -0.595,-0.629 -0.087,-0.062 -0.236,-0.184 -0.236,-0.184 0.175,0.219 0.438,0.367 0.63,0.586"
         style="fill:#fcd205;fill-opacity:1;fill-rule:evenodd;stroke:none"
         id="path5850"
         inkscape:connector-curvature="0" />
    </g>
  </g>
</svg>
